<svg width="816" height="195" viewBox="0 0 816 195" fill="none" xmlns="http://www.w3.org/2000/svg">
<path d="M183.212 151.939C171.372 149.789 168.872 139.179 161.902 132.779L128.162 137.029C124.382 137.509 118.972 137.399 115.922 135.189C107.292 128.939 102.302 120.979 96.7821 111.689C93.9421 112.439 90.7821 113.789 88.3821 115.529L69.8921 128.869C74.4721 139.039 77.6921 150.269 81.2321 161.829L87.1021 180.979C87.6521 182.769 86.7821 186.329 84.7221 186.999C73.6121 190.619 63.2021 193.369 50.8421 194.619C56.1821 182.499 72.7121 182.599 67.0021 167.509C62.2021 154.809 57.7721 142.549 53.9521 129.469C53.0121 126.259 53.3421 122.199 55.7721 120.029L79.6121 98.6787C81.5821 96.9087 83.7821 94.2687 84.4121 91.5487L71.6321 73.6488L64.5721 65.0588L42.9921 76.1687C38.3021 78.5887 32.5421 74.6588 29.3021 71.6788L7.78208 51.8887C4.65208 49.0087 -2.80792 38.6787 1.11208 35.6587C9.07208 29.5287 16.2621 44.2087 16.5421 44.5687C22.0221 51.8887 30.2021 56.6687 37.3721 62.7887C40.9721 61.6687 43.9721 59.8788 46.8221 57.8688C53.2221 53.3588 59.2521 49.0688 65.9721 45.0888C77.0421 38.5288 105.622 45.5587 118.762 48.6587C121.582 49.3287 126.572 51.0287 128.342 53.1687L146.112 74.7088C148.632 77.7588 151.402 83.7288 149.392 87.3788C147.452 90.5988 142.582 87.7787 139.972 86.4687C137.362 85.1587 137.342 80.3487 135.502 77.9687C130.942 72.0587 124.942 65.4288 118.672 61.5288C111.272 56.9188 101.442 59.0287 93.5321 58.1587L89.2121 57.5888C91.2421 60.2688 93.5921 62.7788 95.3121 65.4688L109.352 87.5688C116.702 99.1288 114.682 124.179 131.282 122.919L160.212 120.719C166.022 120.279 170.992 121.629 173.742 127.409C177.492 135.289 180.772 143.469 183.202 151.879L183.212 151.939Z" fill="#578CD4"/>
<path d="M84.7316 1.27879C92.7516 4.60879 95.7116 12.9888 94.1016 20.4588C92.4916 27.9288 85.7216 32.9788 77.8216 33.0488C70.3516 33.1188 63.4216 28.0088 61.6716 20.4988C59.9216 12.9888 63.3216 4.32876 71.2816 1.15876C75.1016 -0.361237 80.5616 -0.451211 84.7316 1.27879Z" fill="#578CD4"/>
<path d="M276.663 128.249C283.963 128.089 289.603 125.619 292.913 119.189L308.503 121.429C302.633 140.829 276.473 142.739 261.123 137.679C248.053 133.369 240.753 121.869 240.143 108.659C239.193 88.2887 254.023 73.2887 274.223 73.1087C285.273 73.0087 296.203 75.1787 303.203 84.3987C308.763 91.7287 310.463 100.909 309.733 110.349L258.703 110.439C258.313 121.029 265.923 128.489 276.653 128.259L276.663 128.249ZM292.083 99.7387C292.303 89.7487 285.183 84.0187 276.143 84.0987C267.103 84.1787 259.013 89.8387 258.933 99.7287H292.083V99.7387Z" fill="black"/>
<path d="M220.933 138.309L202.803 138.529L202.753 61.3086L172.383 61.2886L172.473 46.6286L251.063 46.5786L251.183 61.2086L220.993 61.3886L220.933 138.309Z" fill="black"/>
<path d="M708.433 139.099C697.093 141.489 680.723 138.259 677.423 126.859C675.593 120.539 675.763 114.249 679.863 109.579C688.993 99.1788 708.293 100.199 722.533 100.179C723.033 97.5388 722.963 92.2588 720.783 89.3688C717.143 84.5288 697.613 81.5188 694.613 94.2788L678.593 92.5388C682.313 71.6988 712.993 71.0988 727.763 77.1988C734.613 80.0288 739.423 86.5288 739.503 94.1388L739.893 129.559C739.923 132.299 740.563 135.329 740.923 138.489L725.423 138.529C724.533 136.529 723.723 133.139 723.383 130.759C719.643 134.139 714.083 137.919 708.433 139.109V139.099ZM723.183 116.229C723.413 114.729 723.003 111.879 722.803 109.709C715.783 109.539 709.393 109.669 702.743 110.559C696.323 111.409 692.533 116.999 694.103 123.189C696.913 128.199 701.953 129.419 707.423 128.739C714.573 127.839 721.943 124.329 723.183 116.239V116.229Z" fill="#578CD4"/>
<path d="M429.103 85.9888C421.303 85.8788 412.513 89.9988 412.423 98.6888L412.013 138.539L394.473 138.409L394.553 74.7888L411.373 74.6888L411.843 83.0388C422.673 71.2988 441.343 69.2888 453.593 79.8988C458.163 83.8588 459.953 91.4188 459.963 97.3788L460.063 138.429L443.053 138.489L442.763 98.7988C442.703 90.6288 437.073 86.0788 429.103 85.9688V85.9888Z" fill="black"/>
<path d="M623.732 122.499C632.602 131.729 647.752 129.729 653.992 119.549L669.142 121.539C662.722 139.229 644.332 141.229 628.752 139.119C613.092 136.999 603.502 124.639 602.322 109.659C600.672 88.5288 615.772 72.8188 636.952 73.2288C648.532 73.4488 659.752 77.0488 665.862 87.7888C669.642 94.4288 670.792 102.329 670.632 110.249L641.762 110.369L620.202 110.129C620.312 113.929 620.992 119.649 623.742 122.509L623.732 122.499ZM653.432 99.9388C653.012 90.1888 646.472 83.7688 636.842 84.1588C627.212 84.5488 620.002 90.5788 620.482 100.079L653.432 99.9388Z" fill="#578CD4"/>
<path d="M784.193 86.3987C775.743 86.9687 768.943 92.0688 768.913 100.479L768.763 138.489L751.553 138.379L751.613 75.2288L767.863 75.1788L768.903 84.3688C775.753 74.4988 787.603 71.9388 798.573 74.6088C808.113 76.9388 815.513 84.4088 815.593 94.8188L815.943 138.479L798.813 138.409L798.503 98.5988C798.443 90.6688 792.063 85.8587 784.203 86.3987H784.193Z" fill="#578CD4"/>
<path d="M336.113 115.649C338.663 123.719 345.393 127.889 353.043 127.809C360.693 127.729 366.173 123.979 368.073 116.629L384.073 118.029C380.693 138.909 355.573 143.359 337.783 137.769C324.453 133.579 317.283 122.109 316.673 108.549C315.973 92.9788 323.943 79.0888 339.363 74.7988C356.013 70.1588 381.273 73.9787 384.263 95.6487L367.373 96.7988C365.933 89.2688 360.843 85.7488 354.123 85.2488C345.413 84.6088 337.843 89.6388 335.793 98.3088C334.513 103.729 334.343 110.059 336.113 115.659V115.649Z" fill="black"/>
<path d="M521.264 99.8187C519.524 110.839 521.164 124.029 533.454 127.419C540.044 129.239 547.084 127.689 550.874 121.609L553.844 116.849L569.024 118.209C563.874 136.419 550.584 140.099 534.014 139.739C515.154 139.319 502.354 124.919 502.654 106.529C502.944 88.5286 514.854 74.7087 533.124 73.5687C551.394 72.4287 563.934 76.9687 568.914 95.6687L552.154 96.6187C550.434 88.9487 545.114 85.2887 537.854 85.3587C529.514 85.4387 522.624 91.2387 521.264 99.8087V99.8187Z" fill="#578CD4"/>
<path d="M594.882 138.309L577.372 138.489L577.252 47.1086L594.852 46.8386L594.882 138.309Z" fill="#578CD4"/>
<path d="M492.653 138.489L475.243 138.549L475.223 74.6187L492.673 74.6986L492.653 138.489Z" fill="black"/>
<path d="M488.834 45.9187C493.994 47.7887 494.684 52.8987 493.634 56.7587C492.424 61.2487 487.964 63.3187 482.854 62.7587C478.764 62.3087 475.124 59.4087 474.324 55.7387C473.474 51.8287 475.464 47.7987 479.714 45.9887C481.874 45.0687 486.304 45.0087 488.824 45.9187H488.834Z" fill="black"/>
</svg>
